<svg aria-hidden="true" style="position: absolute; width: 0; height: 0; overflow: hidden;" version="1.1" xmlns="http://www.w3.org/2000/svg" xmlns:xlink="http://www.w3.org/1999/xlink">
<defs>
<symbol id="icon-behance" viewBox="0 0 32 32">
<path stroke-linejoin="miter" stroke-linecap="butt" stroke-miterlimit="4" stroke-width="0.3902" d="M27.339 0.169h-22.134c-2.529 0-4.586 2.051-4.586 4.573v22.073c0 2.522 2.057 4.573 4.586 4.573h22.134c2.529 0 4.586-2.052 4.586-4.573v-22.073c0-2.522-2.057-4.573-4.586-4.573zM30.091 26.816c0 1.513-1.234 2.744-2.752 2.744h-22.134c-1.517 0-2.752-1.231-2.752-2.744v-22.073c0-1.513 1.234-2.744 2.752-2.744h22.134c1.517 0 2.752 1.231 2.752 2.744v22.073z"></path>
<path stroke-linejoin="miter" stroke-linecap="butt" stroke-miterlimit="4" stroke-width="0.3902" d="M15.355 13.035c0-2.017-1.646-3.659-3.669-3.659h-5.503v12.805h5.503c2.023 0 3.669-1.641 3.669-3.659 0-1.092-0.483-2.073-1.246-2.744 0.763-0.671 1.246-1.652 1.246-2.744zM13.52 18.523c0 1.009-0.823 1.829-1.834 1.829h-3.669v-3.659h3.669c1.011 0 1.834 0.821 1.834 1.829zM8.017 14.864v-3.659h3.669c1.011 0 1.834 0.821 1.834 1.829s-0.823 1.829-1.834 1.829h-3.669z"></path>
<path stroke-linejoin="miter" stroke-linecap="butt" stroke-miterlimit="4" stroke-width="0.3902" d="M21.775 13.035c-2.529 0-4.586 2.051-4.586 4.573s2.057 4.573 4.586 4.573c1.632 0 3.154-0.876 3.972-2.286l-1.588-0.916c-0.491 0.847-1.405 1.373-2.384 1.373-1.196 0-2.216-0.765-2.594-1.829h7.18v-0.915c0-2.522-2.057-4.573-4.586-4.573zM19.18 16.694c0.379-1.065 1.398-1.829 2.594-1.829s2.216 0.765 2.594 1.829h-5.189z"></path>
<path stroke-linejoin="miter" stroke-linecap="butt" stroke-miterlimit="4" stroke-width="0.3902" d="M18.106 9.377h7.337v1.829h-7.337v-1.829z"></path>
</symbol>
<symbol id="icon-instargam" viewBox="0 0 32 32">
<path stroke-linejoin="miter" stroke-linecap="butt" stroke-miterlimit="4" stroke-width="0.8" d="M9.499 0.408h0.4v-0.008h12.724c4.772 0 8.678 3.988 8.678 8.89v13.419c0 4.902-3.906 8.89-8.67 8.89h-13.131c-4.773 0-8.685-3.981-8.685-8.874v-13.427c0-4.901 3.913-8.89 8.685-8.89zM2.421 9.304v13.428c0 3.989 3.142 7.213 7.078 7.213h13.131c3.923 0 7.063-3.226 7.063-7.229v-13.419c0-4.003-3.141-7.229-7.071-7.229h-13.124c-3.93 0-7.071 3.226-7.079 7.236zM24.888 6.16c0-0.472 0.363-0.83 0.803-0.83s0.803 0.358 0.803 0.83c0 0.472-0.363 0.83-0.803 0.83s-0.803-0.358-0.803-0.83zM8.042 16.003c0-4.525 3.62-8.213 8.023-8.213s8.023 3.688 8.023 8.213c0 4.525-3.62 8.213-8.023 8.213s-8.023-3.688-8.023-8.213zM22.482 16.003c0-3.627-2.848-6.552-6.417-6.552s-6.417 2.925-6.417 6.552c0 3.627 2.848 6.552 6.417 6.552s6.417-2.925 6.417-6.552z"></path>
</symbol>
<symbol id="icon-surface" viewBox="0 0 32 32">
<path stroke-linejoin="miter" stroke-linecap="butt" stroke-miterlimit="4" stroke-width="0.8" d="M24.297 5.695l0.245-0.307-0.303-0.25c-2.332-1.926-5.294-3.076-8.535-3.076-1.135 0-2.236 0.159-3.278 0.42l-0.582 0.145 0.358 0.481c1.112 1.497 2.711 3.757 4.625 7.297l0.165 0.306 0.326-0.121c3.622-1.345 5.792-3.402 6.98-4.895zM10.457 3.489l-0.196-0.258-0.293 0.138c-3.597 1.697-6.322 4.937-7.398 8.895l-0.133 0.489 0.506 0.016c1.981 0.062 6.715-0.031 11.961-1.436l0.495-0.133-0.249-0.448c-2.035-3.667-3.746-6.014-4.694-7.263zM26.020 6.896l-0.31-0.369-0.305 0.373c-1.325 1.617-3.625 3.717-7.267 5.142l-0.405 0.158 0.192 0.39c0.785 1.599 1.547 3.302 2.241 5.142l0.114 0.303 0.32-0.049c2.635-0.402 5.070-0.402 6.909-0.258 0.447 0.037 0.736 0.079 1.072 0.127 0.071 0.010 0.144 0.021 0.22 0.032l0.41 0.058 0.044-0.411c0.054-0.504 0.085-1.011 0.085-1.535 0-3.483-1.262-6.658-3.32-9.103zM16.303 12.998l-0.148-0.297-0.319 0.091c-6.171 1.753-11.606 1.7-13.299 1.631l-0.385-0.016-0.032 0.412c-0.029 0.381-0.059 0.772-0.059 1.188 0 4.187 1.812 7.925 4.668 10.482l0.298 0.267 0.267-0.298c0.716-0.801 1.677-1.821 2.844-2.886l0.002-0.001c2.197-2.025 5.024-4.168 8.103-5.103l0.414-0.126-0.157-0.403c-0.689-1.766-1.431-3.408-2.196-4.941zM23.894 19.315l-0.004 0c-0.809 0.039-1.67 0.117-2.546 0.234l-0.476 0.063 0.148 0.457c0.739 2.275 1.35 4.685 1.745 7.192l0.099 0.631 0.524-0.365c2.549-1.775 4.477-4.412 5.375-7.509l0.132-0.456-0.471-0.053c-1.168-0.132-2.649-0.265-4.527-0.195zM19.369 20.263l-0.123-0.363-0.368 0.107c-2.705 0.787-5.535 2.828-7.679 4.796-1.036 0.943-1.873 1.838-2.545 2.571l-0.33 0.36 0.419 0.252c2.036 1.228 4.401 1.95 6.953 1.95 1.915 0 3.721-0.405 5.371-1.117l0.278-0.12-0.041-0.301c-0.387-2.859-1.071-5.584-1.935-8.136zM0.461 15.999c0-8.603 6.854-15.599 15.243-15.599s15.243 6.997 15.243 15.599-6.854 15.599-15.243 15.599c-8.389 0-15.243-6.997-15.243-15.599z"></path>
</symbol>
<symbol id="icon-linkedin" viewBox="0 0 32 32">
<path stroke-linejoin="miter" stroke-linecap="butt" stroke-miterlimit="4" stroke-width="0.381" d="M26.882 0.655h-21.637c-2.472 0-4.483 2.006-4.483 4.471v21.579c0 2.465 2.011 4.471 4.483 4.471h21.637c2.472 0 4.483-2.006 4.483-4.471v-21.579c0-2.465-2.011-4.471-4.483-4.471zM29.572 26.705c0 1.479-1.207 2.683-2.69 2.683h-21.637c-1.483 0-2.69-1.203-2.69-2.683v-21.579c0-1.479 1.207-2.683 2.69-2.683h21.637c1.483 0 2.69 1.203 2.69 2.683v21.579z"></path>
<path d="M24.478 22.778c-1.094 0-2.181 0-3.285 0 0-0.053 0-0.102 0-0.151 0-1.779-0-3.557 0-5.336 0-0.379-0.028-0.752-0.123-1.122-0.393-1.523-2.089-1.434-2.763-0.712-0.339 0.363-0.561 0.773-0.57 1.279-0.002 0.121-0.009 0.241-0.009 0.362-0.001 1.841-0 3.682-0 5.523 0 0.050 0 0.099 0 0.157-1.099 0-2.186 0-3.279 0 0-3.395 0-6.786 0-10.183 1.092 0 2.178 0 3.277 0 0 0.46 0 0.913 0 1.366 0.009 0.004 0.017 0.008 0.026 0.011 0.023-0.032 0.047-0.063 0.070-0.095 0.329-0.456 0.706-0.861 1.208-1.134 0.56-0.306 1.165-0.408 1.795-0.39 0.682 0.020 1.329 0.173 1.912 0.54 0.747 0.47 1.203 1.159 1.47 1.984 0.208 0.643 0.276 1.307 0.277 1.979 0.002 1.934 0.001 3.869 0 5.803 0 0.038-0.003 0.076-0.006 0.119z"></path>
<path d="M12.433 22.771h-3.238v-10.169h3.238v10.169z"></path>
<path d="M10.954 7.534c0.511-0.001 0.946 0.18 1.254 0.49s0.49 0.748 0.491 1.264c0.002 0.51-0.181 0.945-0.493 1.252s-0.755 0.488-1.276 0.488c-1.015 0.001-1.739-0.725-1.74-1.745s0.732-1.749 1.765-1.75z"></path>
</symbol>
<symbol id="icon-startup" viewBox="0 0 32 32">
<path fill="none" stroke="#000" style="stroke: var(--color1, #000)" stroke-linejoin="miter" stroke-linecap="butt" stroke-miterlimit="4" stroke-width="0.4706" d="M11.529 10.588l-3.059 1.882v4.235l0.706 0.706 2.353-1.412"></path>
<path fill="#ffd645" style="fill: var(--color2, #ffd645); stroke: var(--color1, #000)" stroke="#000" stroke-linejoin="miter" stroke-linecap="butt" stroke-miterlimit="4" stroke-width="0.4706" d="M11.294 10.588l0.235 5.412-0.941 0.471-2.118 1.176-0.235-1.176 0.235-4 2.824-1.882z"></path>
<path fill="#ffd645" style="fill: var(--color2, #ffd645); stroke: var(--color1, #000)" stroke="#000" stroke-linejoin="miter" stroke-linecap="butt" stroke-miterlimit="4" stroke-width="0.4706" d="M12.235 14.824l0.706-8.941 2.824-4.941 1.647 0.941 3.294 8.235 2.353 2.824v4.941l-2.353-1.412h-2.588l1.647 4.706h-7.529l1.412-4.706-1.412-1.647z"></path>
<path fill="#000" style="fill: var(--color1, #000)" d="M29.187 3.75h-9.905c-0.031 0-0.061 0.002-0.092 0.005-0.653-1.285-1.5-2.453-2.528-3.48-0.366-0.366-0.96-0.366-1.326 0-1.027 1.028-1.875 2.195-2.528 3.48-0.030-0.003-0.061-0.005-0.092-0.005h-9.905c-1.551 0-2.813 1.262-2.813 2.812v16.875c0 1.551 1.262 2.813 2.813 2.813h8.146l-1.264 3.875h-1.195c-0.518 0-0.938 0.42-0.938 0.937s0.42 0.937 0.938 0.937c0.142 0 14.866 0 15 0 0.518 0 0.938-0.42 0.938-0.938s-0.42-0.937-0.938-0.937h-1.195l-1.264-3.875h8.146c1.551 0 2.813-1.262 2.813-2.813v-16.875c0-1.551-1.262-2.813-2.813-2.813zM16 2.319c0.759 0.892 1.373 1.88 1.832 2.934-0.576 0.244-1.197 0.372-1.832 0.372s-1.256-0.128-1.832-0.372c0.459-1.054 1.073-2.041 1.832-2.934zM13.187 10.313c0-1.032 0.043-1.998 0.371-3.283 0.772 0.309 1.599 0.47 2.441 0.47s1.67-0.161 2.441-0.47c0.325 1.27 0.371 2.239 0.371 3.283v4.688c-0.569 0-4.708 0-5.625 0v-4.688zM18.449 20.625h-4.899l1.25-3.75h2.399l1.25 3.75zM1.875 6.563c0-0.517 0.421-0.938 0.938-0.938h9.212c-0.417 1.242-0.652 2.529-0.701 3.842-2.142 0.431-3.761 2.328-3.761 4.595v3.75c0 0.325 0.168 0.627 0.445 0.797s0.622 0.186 0.912 0.041l3.552-1.776h0.353l-1.25 3.75h-9.699v-14.063zM11.313 11.411v3.947l-1.875 0.938v-2.233c0-1.222 0.784-2.265 1.875-2.652zM11.667 30.125l1.264-3.875h6.139l1.264 3.875h-8.666zM30.125 23.438c0 0.517-0.421 0.938-0.938 0.938-0.291 0-26.227 0-26.375 0-0.517 0-0.938-0.421-0.938-0.938v-0.938c1.026 0 27.165 0 28.25 0v0.938zM30.125 20.625h-9.699l-1.25-3.75h0.353l3.552 1.776c0.29 0.145 0.635 0.13 0.912-0.041s0.445-0.473 0.445-0.797v-3.75c0-2.267-1.619-4.164-3.761-4.595-0.049-1.313-0.284-2.6-0.701-3.842h9.212c0.517 0 0.938 0.421 0.938 0.938v14.063zM20.687 15.358v-3.947c1.091 0.387 1.875 1.43 1.875 2.652v2.233l-1.875-0.938z"></path>
<path fill="#000" style="fill: var(--color1, #000)" d="M16 11.25c0.518 0 0.938-0.42 0.938-0.938s-0.42-0.938-0.938-0.938-0.938 0.42-0.938 0.938c0 0.518 0.42 0.938 0.938 0.938z"></path>
</symbol>
<symbol id="icon-graphic" viewBox="0 0 32 32">
<path fill="#ffd645" style="fill: var(--color2, #ffd645)" d="M14.353 11.294l4.279 5.647h-8.558l4.279-5.647z"></path>
<path fill="#ffd645" style="fill: var(--color2, #ffd645)" d="M19.765 8l6.113 9.176h-12.226l6.113-9.176z"></path>
<path fill="#000" style="fill: var(--color1, #000)" d="M31.063 22.562h-30.125c-0.518 0-0.937 0.42-0.937 0.937v7.562c0 0.519 0.42 0.938 0.937 0.938h30.125c0.518 0 0.937-0.42 0.937-0.937v-7.562c0-0.518-0.42-0.938-0.937-0.938zM30.125 30.125h-1.938v-2.875c0-0.518-0.42-0.937-0.937-0.937s-0.937 0.42-0.937 0.937v0 2.875h-1.875v-1c0-0.518-0.42-0.938-0.938-0.938s-0.938 0.42-0.938 0.938v0 1h-1.875v-2.875c0-0.518-0.42-0.937-0.937-0.937s-0.937 0.42-0.937 0.937v0 2.875h-1.875v-1c0-0.518-0.42-0.937-0.937-0.937s-0.937 0.42-0.937 0.937v0 1h-1.875v-2.875c0-0.518-0.42-0.937-0.937-0.937s-0.937 0.42-0.937 0.937v0 2.875h-1.875v-1c0-0.518-0.42-0.938-0.938-0.938s-0.938 0.42-0.938 0.938v0 1h-1.875v-2.875c0-0.518-0.42-0.937-0.937-0.937s-0.937 0.42-0.937 0.937v0 2.875h-1.938v-5.687h28.25v5.688zM31.063 5.688c0.518 0 0.937-0.42 0.937-0.937v-3.813c0-0.518-0.42-0.937-0.937-0.937h-3.813c-0.518 0-0.937 0.42-0.937 0.937v0.937h-20.625v-0.937c0-0.518-0.42-0.937-0.937-0.937h-3.813c-0.518 0-0.937 0.42-0.937 0.937v3.813c0 0.518 0.42 0.937 0.937 0.937h0.937v9.375h-0.937c-0.518 0-0.937 0.42-0.937 0.937v3.75c0 0.518 0.42 0.937 0.937 0.937h3.813c0.518 0 0.937-0.42 0.937-0.937v-0.937h20.625v0.937c0 0.518 0.42 0.937 0.937 0.937h3.813c0.518 0 0.937-0.42 0.937-0.937v-3.75c0-0.518-0.42-0.937-0.937-0.937h-0.937v-9.375h0.937zM1.875 1.875h1.938v1.938h-1.938v-1.938zM3.813 18.813h-1.938v-1.875h1.938v1.875zM10.375 16.937l3.75-5 3.75 5h-7.5zM20.219 16.937l-3.291-4.388 2.823-4.234 5.748 8.622h-5.28zM26.648 15.282l-6.118-9.177c-0.171-0.253-0.456-0.417-0.78-0.417s-0.61 0.164-0.778 0.414l-0.002 0.003-3.236 4.853-0.859-1.145c-0.173-0.229-0.444-0.375-0.75-0.375s-0.577 0.146-0.748 0.372l-0.002 0.002-5.344 7.125h-2.344v-0.937c0-0.518-0.42-0.937-0.937-0.937h-1v-9.375h1c0.518 0 0.937-0.42 0.937-0.937v-1h20.625v1c0 0.518 0.42 0.937 0.937 0.937h1v9.375h-1c-0.229 0-0.439 0.082-0.602 0.219zM30.125 18.813h-1.938v-1.875h1.938v1.875zM28.187 3.813v-1.938h1.938v1.938h-1.938z"></path>
<path fill="#000" style="fill: var(--color1, #000)" d="M8.5 5.688c-1.553 0.002-2.811 1.26-2.813 2.812v0c0.002 1.553 1.26 2.811 2.812 2.813h0c1.553-0.002 2.811-1.26 2.813-2.813v-0c-0.002-1.553-1.26-2.811-2.813-2.812h-0zM8.5 9.438c-0.518-0-0.937-0.42-0.938-0.937v-0c0-0.517 0.421-0.938 0.937-0.938s0.938 0.421 0.938 0.937c-0 0.518-0.42 0.937-0.937 0.938h-0z"></path>
</symbol>
<symbol id="icon-browser" viewBox="0 0 32 32">
<path fill="#ffd645" style="fill: var(--color2, #ffd645)" d="M21.647 12.706h5.647v14.118h-5.647zM5.176 20.235h12.706v6.588h-12.706zM5.176 12.706h12.706v2.824h-12.706z"></path>
<path fill="#000" style="fill: var(--color1, #000)" d="M29.187 0h-26.375c-1.553 0.002-2.811 1.26-2.813 2.813v26.375c0.002 1.553 1.26 2.811 2.813 2.813h26.375c1.553-0.002 2.811-1.26 2.813-2.813v-26.375c-0.002-1.553-1.26-2.811-2.813-2.813h-0zM1.875 2.813c0-0.517 0.421-0.938 0.938-0.938h4.687v5.625h-5.624v-4.688zM30.125 29.187c-0 0.518-0.42 0.938-0.938 0.938h-26.375c-0.518-0-0.938-0.42-0.938-0.938v-19.812h28.25v19.812zM30.125 7.5h-20.75v-5.624h19.812c0.517 0 0.938 0.421 0.938 0.938v4.687z"></path>
<path fill="#000" style="fill: var(--color1, #000)" d="M27.313 3.75h-1.875c-0.518 0-0.937 0.42-0.937 0.937s0.42 0.937 0.937 0.937h1.875c0.518 0 0.937-0.42 0.937-0.937s-0.42-0.937-0.937-0.937v0zM21.625 3.75h-1.874c-0.518 0-0.937 0.42-0.937 0.937s0.42 0.937 0.937 0.937h1.875c0.518 0 0.937-0.42 0.937-0.937s-0.42-0.937-0.937-0.937v0zM16 3.75h-1.875c-0.518 0-0.937 0.42-0.937 0.937s0.42 0.937 0.937 0.937h1.875c0.518 0 0.937-0.42 0.937-0.937s-0.42-0.937-0.937-0.937v0zM17.875 11.313h-13.187c-0.518 0-0.937 0.419-0.937 0.937v3.75c0 0.518 0.42 0.937 0.937 0.937h13.187c0.518 0 0.938-0.42 0.938-0.937v-3.75c0-0.518-0.42-0.937-0.938-0.937zM16.937 15.063h-11.312v-1.875h11.313v1.875zM27.313 11.313h-5.688c-0.518 0-0.937 0.419-0.937 0.937v15.063c0 0.518 0.42 0.937 0.937 0.937h5.688c0.518 0 0.937-0.42 0.937-0.937v-15.063c0-0.518-0.42-0.937-0.937-0.937zM26.375 26.375h-3.813v-13.188h3.813v13.188zM17.875 18.813h-13.187c-0.518 0-0.937 0.42-0.937 0.937v7.562c0 0.518 0.42 0.937 0.937 0.937h13.187c0.518 0 0.938-0.42 0.938-0.937v-7.562c0-0.518-0.42-0.937-0.938-0.937zM16.937 26.375h-11.312v-5.688h11.313v5.688z"></path>
</symbol>
</defs>
</svg>
